<?xml version="1.0" encoding="utf-8"?>
<!-- Generator: Adobe Illustrator 17.1.0, SVG Export Plug-In . SVG Version: 6.00 Build 0)  -->
<!DOCTYPE svg PUBLIC "-//W3C//DTD SVG 1.1 Basic//EN" "http://www.w3.org/Graphics/SVG/1.1/DTD/svg11-basic.dtd">
<svg version="1.1" baseProfile="basic" id="Arrow_1_"
	 xmlns="http://www.w3.org/2000/svg" xmlns:xlink="http://www.w3.org/1999/xlink" x="0px" y="0px" width="500px" height="500px"
	 viewBox="0 0 500 500" xml:space="preserve">
  <metadata>
    <?xpacket begin="﻿" id="W5M0MpCehiHzreSzNTczkc9d"?>
    <x:xmpmeta xmlns:x="adobe:ns:meta/" x:xmptk="Adobe XMP Core 5.6-c011 79.156380, 2014/06/19-23:40:37        ">
     <rdf:RDF xmlns:rdf="http://www.w3.org/1999/02/22-rdf-syntax-ns#">
      <rdf:Description rdf:about=""
        xmlns:xmpMM="http://ns.adobe.com/xap/1.0/mm/"
        xmlns:stEvt="http://ns.adobe.com/xap/1.0/sType/ResourceEvent#"
        xmlns:xmp="http://ns.adobe.com/xap/1.0/"
        xmlns:xmpRights="http://ns.adobe.com/xap/1.0/rights/"
        xmlns:dc="http://purl.org/dc/elements/1.1/"
       xmpMM:DocumentID="xmp.did:a67c1cf5a112d33e3bacc2eb4fbcfd57"
       xmpMM:OriginalDocumentID="xmp.did:a67c1cf5a112d33e3bacc2eb4fbcfd57"
       xmpMM:InstanceID="xmp.iid:a67c1cf5a112d33e3bacc2eb4fbcfd57"
       xmp:ModifyDate="2015-04-21T15:10:41+02:00"
       xmp:MetadataDate="2015-04-21T15:10:41+02:00"
       xmpRights:Marked="True"
       xmpRights:WebStatement="http://www.adobe.com/legal/general-terms.html">
       <xmpMM:History>
        <rdf:Seq>
         <rdf:li
          stEvt:action="saved"
          stEvt:instanceID="xmp.iid:a67c1cf5a112d33e3bacc2eb4fbcfd57"
          stEvt:when="2015-04-21T15:10:41+02:00"/>
        </rdf:Seq>
       </xmpMM:History>
       <xmpRights:UsageTerms>
        <rdf:Alt>
         <rdf:li xml:lang="x-default">This work is licensed under the Adobe General Terms of Use http://www.adobe.com/legal/general-terms.html.</rdf:li>
        </rdf:Alt>
       </xmpRights:UsageTerms>
       <dc:publisher>
        <rdf:Bag>
         <rdf:li>Adobe Systems Incorporated</rdf:li>
        </rdf:Bag>
       </dc:publisher>
      </rdf:Description>
     </rdf:RDF>
    </x:xmpmeta>
    <?xpacket end="r"?>
  </metadata>
<g>
	<path d="M442.8,233c-3.7-4.3-9.2-6.5-14.9-6.6c-5.7,0.1-11,2.7-14.6,7.2c-0.2,0.3-25.7,30.8-62.5,30.8c-30.7,0-43.7-44.4-43.9-45
		c-2.9-10.2-13.4-16.2-23.6-13.3c-10.2,2.8-16.2,13.4-13.4,23.6c0.8,3,20.9,73.1,80.8,73.1c34,0,60.5-16.2,76.2-29.2l6.6,7.7
		c7,8,19.1,8.9,27.1,1.9c8-6.9,8.9-19,2-27.1L442.8,233z"/>
	<path d="M497.5,167.4c-0.8-1.9-19.1-46.6-41.2-74.1c-10-12.4-24.1-29.9-44.6-41.5c0.9-7.1,1.1-15.7-0.6-25.1
		c-1.9-10.4-11.9-17.4-22.3-15.5C378.5,13,371.6,23,373.4,33.4c0.4,2.5,0.6,4.8,0.6,7c-2.5-0.2-4.8-0.7-7.5-0.7
		c-3.8,0-7.3,0.4-10.9,1c-0.7-4.9-0.8-9.1-0.1-11.5c3.1-10.1-2.5-20.9-12.7-24c-10.1-3.1-20.9,2.6-24,12.7
		c-3.5,11.3-2.2,25.6,0.6,38.8c-13.5,9.9-25.6,22.9-37.4,35.7c-16.6,17.8-33.7,36.3-54.4,47.2c-9.4,4.9-13,16.5-8.1,25.9
		c4.9,9.4,16.5,13,25.9,8.1c26.6-13.9,46.9-35.8,64.8-55.1c7.7-8.4,15.1-16.3,22.3-22.8c3.4,6.5,9.9,10.4,16.9,10.4
		c2.6,0,5.3-0.6,7.9-1.7c9.7-4.4,14-15.7,9.6-25.4c-0.1-0.3-0.2-0.6-0.4-0.9c26.3,0,42.7,17.7,59.9,39.1
		c12,14.9,23.2,37.2,29.7,51.3c-7.4,4.5-18.4,9.4-31.5,9.4c-31.3,0-56.6-25.5-56.8-25.7c-7.4-7.6-19.5-7.9-27.1-0.6
		c-7.6,7.3-7.9,19.5-0.6,27.1c1.5,1.5,36.6,37.5,84.5,37.5c40.7,0,67.7-27.1,68.9-28.3C498.8,182.5,500.4,174.4,497.5,167.4z"/>
	<path d="M354,461.6h-54.5c28.8-21.8,54.5-51.3,54.5-87c0-55.6-43.7-80.6-87-80.6c-81.8,0-109.7,59.9-110.8,62.5
		c-4.3,9.7,0,21,9.6,25.4c9.6,4.3,21,0,25.4-9.6c0.2-0.4,18.6-39.9,75.9-39.9c18.2,0,48.6,5.5,48.6,42.2c0,33-46.4,66.2-91.2,87
		h-57.1c-78.9,0-127.9-48.9-127.9-127.7c0-71.7,57.1-111.9,112.2-150.9c44.9-31.6,87.2-61.5,87.2-106.8C238.9,38.4,205.9,0,143,0
		C73.7,0,22.3,55,20.2,57.4c-7.2,7.8-6.7,19.9,1.2,27.1c7.8,7.2,20,6.7,27.1-1.2c0.4-0.4,41.9-45,94.6-45
		c37.8,0,57.5,19.1,57.5,37.9c0,25.4-32.9,48.6-71,75.5C72.3,192.1,1,242.3,1,333.9C1,433.2,67.9,500,167.3,500h61.4H354
		c10.6,0,19.2-8.6,19.2-19.2C373.2,470.2,364.6,461.6,354,461.6z"/>
</g>
</svg>
